<?xml version="1.0" standalone="no"?><!DOCTYPE svg PUBLIC "-//W3C//DTD SVG 1.1//EN" "http://www.w3.org/Graphics/SVG/1.1/DTD/svg11.dtd"><svg t="1539570679831" class="icon" style="" viewBox="0 0 1024 1024" version="1.1" xmlns="http://www.w3.org/2000/svg" p-id="1436" xmlns:xlink="http://www.w3.org/1999/xlink" width="200" height="200"><defs><style type="text/css"></style></defs><path d="M856.3 262.8h-171l-40-50.7c-7.6-9.6-18.9-15.1-31.1-15.1H409.9c-12.2 0-23.6 5.5-31.1 15.1l-40 50.7h-171c-21.9 0-39.7 17.8-39.7 39.7v485c0 21.9 17.8 39.7 39.7 39.7h688.7c21.9 0 39.7-17.8 39.7-39.7v-485c-0.2-22-18-39.7-39.9-39.7z m-10.9 513.6H178.6v-463H344c12.2 0 23.6-5.5 31.1-15.1l40-50.7h193.7l40 50.7c7.6 9.6 18.9 15.1 31.1 15.1h165.4v463z" p-id="1437" fill="#ffffff"></path><path d="M512 373.8c-95.7 0-173.6 77.9-173.6 173.6S416.3 721.1 512 721.1s173.6-77.9 173.6-173.6S607.7 373.8 512 373.8z m0 296.6c-67.8 0-123-55.2-123-123s55.2-123 123-123 123 55.2 123 123c0 67.9-55.2 123-123 123zM765.1 424.4c14 0 25.3-11.3 25.3-25.3s-11.3-25.3-25.3-25.3-25.3 11.3-25.3 25.3c-0.1 14 11.3 25.3 25.3 25.3z" p-id="1438" fill="#ffffff"></path></svg>